<svg xmlns="http://www.w3.org/2000/svg" viewBox="0 0 512 512">
  <defs>
    <linearGradient id="g1" x1="0%" y1="0%" x2="100%" y2="100%">
      <stop offset="0%" stop-color="#8B7FCF"/>
      <stop offset="100%" stop-color="#6B5B9A"/>
    </linearGradient>
    <linearGradient id="g2" x1="0%" y1="0%" x2="100%" y2="100%">
      <stop offset="0%" stop-color="#A594E0"/>
      <stop offset="100%" stop-color="#8B7FCF"/>
    </linearGradient>
  </defs>
  <!-- Background circle -->
  <circle cx="256" cy="256" r="240" fill="url(#g1)"/>
  <circle cx="256" cy="256" r="220" fill="none" stroke="rgba(255,255,255,0.15)" stroke-width="3"/>
  <!-- Heart shape - outer glow -->
  <path d="M256 420 C256 420 100 300 100 200 C100 140 148 100 200 100 C230 100 252 118 256 130 C260 118 282 100 312 100 C364 100 412 140 412 200 C412 300 256 420 256 420Z" fill="url(#g2)" opacity="0.3"/>
  <!-- Heart shape - white fill -->
  <path d="M256 390 C256 390 120 285 120 195 C120 145 160 115 205 115 C232 115 252 130 256 140 C260 130 280 115 307 115 C352 115 392 145 392 195 C392 285 256 390 256 390Z" fill="white"/>
  <!-- ECG/Pulse line across the heart -->
  <polyline points="140,245 195,245 215,245 230,200 250,290 270,180 290,260 305,245 370,245" fill="none" stroke="url(#g1)" stroke-width="12" stroke-linecap="round" stroke-linejoin="round"/>
  <!-- Small shield accent at bottom -->
  <path d="M256 340 L236 320 L236 300 C236 295 240 290 256 285 C272 290 276 295 276 300 L276 320 Z" fill="url(#g1)" opacity="0.8"/>
</svg>
